<svg width="19" height="19" viewBox="0 0 19 19" fill="none" xmlns="http://www.w3.org/2000/svg">
    <path d="M0.666672 18.334C0.666672 16.5659 1.36905 14.8702 2.61929 13.6199C3.86954 12.3697 5.56523 11.6673 7.33334 11.6673C9.10145 11.6673 10.7971 12.3697 12.0474 13.6199C13.2976 14.8702 14 16.5659 14 18.334H12.3333C12.3333 17.0079 11.8066 15.7361 10.8689 14.7984C9.93119 13.8608 8.65942 13.334 7.33334 13.334C6.00726 13.334 4.73549 13.8608 3.7978 14.7984C2.86012 15.7361 2.33334 17.0079 2.33334 18.334H0.666672ZM7.33334 10.834C4.57084 10.834 2.33334 8.59648 2.33334 5.83398C2.33334 3.07148 4.57084 0.833984 7.33334 0.833984C10.0958 0.833984 12.3333 3.07148 12.3333 5.83398C12.3333 8.59648 10.0958 10.834 7.33334 10.834ZM7.33334 9.16732C9.175 9.16732 10.6667 7.67565 10.6667 5.83398C10.6667 3.99232 9.175 2.50065 7.33334 2.50065C5.49167 2.50065 4.00001 3.99232 4.00001 5.83398C4.00001 7.67565 5.49167 9.16732 7.33334 9.16732ZM14.2367 12.2532C15.4078 12.7806 16.4017 13.635 17.0988 14.7137C17.796 15.7925 18.1668 17.0496 18.1667 18.334H16.5C16.5002 17.3706 16.2221 16.4277 15.6992 15.6186C15.1764 14.8095 14.4309 14.1687 13.5525 13.7732L14.2358 12.2532H14.2367ZM13.6633 2.84482C14.5029 3.1909 15.2208 3.7786 15.7259 4.53334C16.2309 5.28809 16.5003 6.17585 16.5 7.08398C16.5004 8.22759 16.0731 9.33001 15.3021 10.1747C14.5312 11.0193 13.4722 11.5452 12.3333 11.649V9.97148C12.9508 9.88305 13.5236 9.599 13.9678 9.16103C14.4119 8.72307 14.7039 8.15425 14.801 7.5381C14.898 6.92194 14.795 6.2909 14.507 5.73761C14.219 5.18433 13.7612 4.73794 13.2008 4.46398L13.6633 2.84482Z" fill="#0556E5"/>
    </svg>
    