<svg width="39" height="35" viewBox="0 0 39 35" fill="none" xmlns="http://www.w3.org/2000/svg">
    <g clip-path="url(#clip0_1192_28497)">
    <path d="M10.6667 26.334C10.6667 24.5659 11.3691 22.8702 12.6193 21.6199C13.8695 20.3697 15.5652 19.6673 17.3333 19.6673C19.1014 19.6673 20.7971 20.3697 22.0474 21.6199C23.2976 22.8702 24 24.5659 24 26.334H22.3333C22.3333 25.0079 21.8066 23.7361 20.8689 22.7984C19.9312 21.8608 18.6594 21.334 17.3333 21.334C16.0073 21.334 14.7355 21.8608 13.7978 22.7984C12.8601 23.7361 12.3333 25.0079 12.3333 26.334H10.6667ZM17.3333 18.834C14.5708 18.834 12.3333 16.5965 12.3333 13.834C12.3333 11.0715 14.5708 8.83398 17.3333 8.83398C20.0958 8.83398 22.3333 11.0715 22.3333 13.834C22.3333 16.5965 20.0958 18.834 17.3333 18.834ZM17.3333 17.1673C19.175 17.1673 20.6667 15.6757 20.6667 13.834C20.6667 11.9923 19.175 10.5007 17.3333 10.5007C15.4917 10.5007 14 11.9923 14 13.834C14 15.6757 15.4917 17.1673 17.3333 17.1673ZM24.2367 20.2532C25.4078 20.7806 26.4017 21.635 27.0988 22.7137C27.796 23.7925 28.1668 25.0496 28.1667 26.334H26.5C26.5002 25.3706 26.2221 24.4277 25.6992 23.6186C25.1764 22.8095 24.4309 22.1687 23.5525 21.7732L24.2358 20.2532H24.2367ZM23.6633 10.8448C24.5029 11.1909 25.2208 11.7786 25.7259 12.5333C26.2309 13.2881 26.5003 14.1759 26.5 15.084C26.5004 16.2276 26.0731 17.33 25.3021 18.1747C24.5312 19.0193 23.4722 19.5452 22.3333 19.649V17.9715C22.9508 17.8831 23.5236 17.599 23.9678 17.161C24.4119 16.7231 24.7039 16.1543 24.801 15.5381C24.898 14.9219 24.795 14.2909 24.507 13.7376C24.219 13.1843 23.7612 12.7379 23.2008 12.464L23.6633 10.8448V10.8448Z" fill="#0556E5"/>
    </g>
    <rect x="0.25" y="0.25" width="38.5" height="34.5" rx="3.75" stroke="#0556E5" stroke-width="0.5"/>
    <defs>
    <clipPath id="clip0_1192_28497">
    <rect width="20" height="20" fill="white" transform="translate(9 8)"/>
    </clipPath>
    </defs>
    </svg>
    