<svg width="47" height="48" viewBox="0 0 47 48" fill="none" xmlns="http://www.w3.org/2000/svg">
<rect y="0.5" width="47" height="47" rx="23.5" fill="#2066AF"/>
<g clip-path="url(#clip0_1734_31336)">
<path d="M26 26.752V28.842C25.0949 28.522 24.1263 28.4239 23.1754 28.5558C22.2245 28.6877 21.3192 29.0459 20.5354 29.6002C19.7517 30.1545 19.1123 30.8888 18.6712 31.7414C18.23 32.594 17.9998 33.54 18 34.5L16 34.499C15.9997 33.2779 16.2789 32.0729 16.8163 30.9764C17.3537 29.8799 18.1349 28.9209 19.1002 28.173C20.0655 27.4251 21.1892 26.9081 22.3852 26.6616C23.5811 26.4152 24.8177 26.4457 26 26.751V26.752ZM24 25.5C20.685 25.5 18 22.815 18 19.5C18 16.185 20.685 13.5 24 13.5C27.315 13.5 30 16.185 30 19.5C30 22.815 27.315 25.5 24 25.5ZM24 23.5C26.21 23.5 28 21.71 28 19.5C28 17.29 26.21 15.5 24 15.5C21.79 15.5 20 17.29 20 19.5C20 21.71 21.79 23.5 24 23.5ZM30 29.5V26.5H32V29.5H35V31.5H32V34.5H30V31.5H27V29.5H30Z" fill="white"/>
</g>
<defs>
<clipPath id="clip0_1734_31336">
<rect width="24" height="24" fill="white" transform="translate(12 12.5)"/>
</clipPath>
</defs>
</svg>
