<svg width="45" height="45" viewBox="0 0 45 45" fill="none" xmlns="http://www.w3.org/2000/svg">
    <circle cx="22.5" cy="22.5" r="22.5" fill="#FAFCFF"/>
    <g clip-path="url(#clip0_509_13945)">
    <path d="M12 31H32V33H12V31ZM14 23H16V30H14V23ZM19 23H21V30H19V23ZM23 23H25V30H23V23ZM28 23H30V30H28V23ZM12 18L22 13L32 18V22H12V18ZM14 19.236V20H30V19.236L22 15.236L14 19.236ZM22 19C21.7348 19 21.4804 18.8946 21.2929 18.7071C21.1054 18.5196 21 18.2652 21 18C21 17.7348 21.1054 17.4804 21.2929 17.2929C21.4804 17.1054 21.7348 17 22 17C22.2652 17 22.5196 17.1054 22.7071 17.2929C22.8946 17.4804 23 17.7348 23 18C23 18.2652 22.8946 18.5196 22.7071 18.7071C22.5196 18.8946 22.2652 19 22 19Z" fill="#0556E5"/>
    </g>
    <defs>
    <clipPath id="clip0_509_13945">
    <rect width="24" height="24" fill="white" transform="translate(10 11)"/>
    </clipPath>
    </defs>
    </svg>
    