<svg width="18" height="22" viewBox="0 0 18 22" fill="none" xmlns="http://www.w3.org/2000/svg">
    <path d="M0.833333 18.3455C0.658333 18.3455 0.517556 18.2918 0.411 18.1845C0.303667 18.078 0.25 17.9372 0.25 17.7622C0.25 17.6066 0.303667 17.4705 0.411 17.3538C0.517556 17.2372 0.658333 17.1788 0.833333 17.1788H2.58333V8.42884C2.58333 6.93162 3.06944 5.58023 4.04167 4.37467C5.01389 3.16912 6.27778 2.42051 7.83333 2.12884V1.31217C7.83333 0.962175 7.94533 0.68023 8.16933 0.466341C8.39256 0.252452 8.66944 0.145508 9 0.145508C9.33055 0.145508 9.60783 0.252452 9.83183 0.466341C10.0551 0.68023 10.1667 0.962175 10.1667 1.31217V2.12884C11.7222 2.42051 12.9861 3.16912 13.9583 4.37467C14.9306 5.58023 15.4167 6.93162 15.4167 8.42884V17.1788H17.1667C17.3417 17.1788 17.4828 17.2372 17.5902 17.3538C17.6967 17.4705 17.75 17.6066 17.75 17.7622C17.75 17.9372 17.6967 18.078 17.5902 18.1845C17.4828 18.2918 17.3417 18.3455 17.1667 18.3455H0.833333ZM9 21.7288C8.49444 21.7288 8.05228 21.5492 7.6735 21.1898C7.29394 20.8297 7.10417 20.3775 7.10417 19.833H10.8958C10.8958 20.3775 10.7162 20.8297 10.3568 21.1898C9.99672 21.5492 9.54444 21.7288 9 21.7288ZM3.75 17.1788H14.25V8.42884C14.25 6.98995 13.7347 5.75523 12.7042 4.72468C11.6736 3.69412 10.4389 3.17884 9 3.17884C7.56111 3.17884 6.32639 3.69412 5.29583 4.72468C4.26528 5.75523 3.75 6.98995 3.75 8.42884V17.1788Z" fill="#1C1B1F"/>
    </svg>
    