<svg width="47" height="48" viewBox="0 0 47 48" fill="none" xmlns="http://www.w3.org/2000/svg">
<rect y="0.5" width="47" height="47" rx="23.5" fill="#2066AF"/>
<mask id="mask0_1734_31344" style="mask-type:alpha" maskUnits="userSpaceOnUse" x="12" y="12" width="24" height="25">
<rect x="12" y="12.5" width="24" height="24" fill="#D9D9D9"/>
</mask>
<g mask="url(#mask0_1734_31344)">
<path d="M24.075 31.5H17C16.45 31.5 15.979 31.3043 15.587 30.913C15.1957 30.521 15 30.05 15 29.5V18.5C15 17.95 15.1957 17.4793 15.587 17.088C15.979 16.696 16.45 16.5 17 16.5H18V14.5H20V16.5H26V14.5H28V16.5H29C29.55 16.5 30.021 16.696 30.413 17.088C30.8043 17.4793 31 17.95 31 18.5V24.575C30.8333 24.5417 30.671 24.5207 30.513 24.512C30.3543 24.504 30.1833 24.5 30 24.5C29.8167 24.5 29.646 24.504 29.488 24.512C29.3293 24.5207 29.1667 24.5417 29 24.575V21.5H17V29.5H24.075C24.0417 29.6667 24.0207 29.8293 24.012 29.988C24.004 30.146 24 30.3167 24 30.5C24 30.6833 24.004 30.854 24.012 31.012C24.0207 31.1707 24.0417 31.3333 24.075 31.5ZM29 34.5V31.5H26V29.5H29V26.5H31V29.5H34V31.5H31V34.5H29Z" fill="white"/>
</g>
</svg>
