<svg width="45" height="45" viewBox="0 0 45 45" fill="none" xmlns="http://www.w3.org/2000/svg">
    <circle cx="22.5" cy="22.5" r="22.5" fill="#FAFBFF"/>
    <g clip-path="url(#clip0_509_13936)">
    <path d="M14 14H32C32.2652 14 32.5196 14.1054 32.7071 14.2929C32.8946 14.4804 33 14.7348 33 15V31C33 31.2652 32.8946 31.5196 32.7071 31.7071C32.5196 31.8946 32.2652 32 32 32H14C13.7348 32 13.4804 31.8946 13.2929 31.7071C13.1054 31.5196 13 31.2652 13 31V15C13 14.7348 13.1054 14.4804 13.2929 14.2929C13.4804 14.1054 13.7348 14 14 14ZM31 22H15V30H31V22ZM31 20V16H15V20H31ZM25 26H29V28H25V26Z" fill="#0556E5"/>
    </g>
    <defs>
    <clipPath id="clip0_509_13936">
    <rect width="24" height="24" fill="white" transform="translate(11 11)"/>
    </clipPath>
    </defs>
    </svg>
    