<svg width="42" height="42" viewBox="0 0 42 42" fill="none" xmlns="http://www.w3.org/2000/svg">
<rect width="42" height="42" rx="21" fill="#EBF2FE"/>
<mask id="mask0_1778_34938" style="mask-type:alpha" maskUnits="userSpaceOnUse" x="9" y="9" width="24" height="24">
<rect x="9" y="9" width="24" height="24" fill="#D9D9D9"/>
</mask>
<g mask="url(#mask0_1778_34938)">
<path d="M22 29.275L21.95 27H20.5C18.4167 27 16.646 26.2707 15.188 24.812C13.7293 23.354 13 21.5833 13 19.5C13 17.4167 13.7293 15.646 15.188 14.188C16.646 12.7293 18.4167 12 20.5 12C21.55 12 22.5293 12.1957 23.438 12.587C24.346 12.979 25.1373 13.5123 25.812 14.187C26.4873 14.8623 27.021 15.654 27.413 16.562C27.8043 17.4707 28 18.45 28 19.5C28 21.55 27.4373 23.4207 26.312 25.112C25.1873 26.804 23.75 28.1917 22 29.275ZM20.525 24.575C20.7417 24.575 20.9207 24.5043 21.062 24.363C21.204 24.221 21.275 24.0417 21.275 23.825C21.275 23.625 21.204 23.454 21.062 23.312C20.9207 23.1707 20.7417 23.1 20.525 23.1C20.325 23.1 20.1543 23.1707 20.013 23.312C19.871 23.454 19.8 23.625 19.8 23.825C19.8 24.0417 19.871 24.221 20.013 24.363C20.1543 24.5043 20.325 24.575 20.525 24.575ZM20.1 21.65H20.975C21.0083 21.2333 21.0917 20.9083 21.225 20.675C21.3583 20.4417 21.6667 20.075 22.15 19.575C22.45 19.2917 22.6833 19 22.85 18.7C23.0167 18.4 23.1 18.0583 23.1 17.675C23.1 16.9417 22.85 16.3707 22.35 15.962C21.85 15.554 21.25 15.35 20.55 15.35C19.9167 15.35 19.3877 15.5167 18.963 15.85C18.5377 16.1833 18.225 16.5833 18.025 17.05L18.85 17.375C18.9833 17.075 19.1793 16.804 19.438 16.562C19.696 16.3207 20.0667 16.2 20.55 16.2C21.1 16.2 21.5127 16.354 21.788 16.662C22.0627 16.9707 22.2 17.3083 22.2 17.675C22.2 18.0083 22.1127 18.2917 21.938 18.525C21.7627 18.7583 21.5417 19.0083 21.275 19.275C20.7917 19.7083 20.475 20.0917 20.325 20.425C20.175 20.7583 20.1 21.1667 20.1 21.65Z" fill="#0660FE"/>
</g>
</svg>
