<svg width="42" height="42" viewBox="0 0 42 42" fill="none" xmlns="http://www.w3.org/2000/svg">
<rect width="42" height="42" rx="21" fill="#FFE7E5"/>
<mask id="mask0_1778_34965" style="mask-type:alpha" maskUnits="userSpaceOnUse" x="9" y="9" width="24" height="24">
<rect x="9" y="9" width="24" height="24" fill="#D9D9D9"/>
</mask>
<g mask="url(#mask0_1778_34965)">
<path d="M14.8 30C14.35 30 13.9706 29.846 13.662 29.538C13.354 29.2293 13.2 28.8417 13.2 28.375V14.625C13.2 14.1583 13.354 13.771 13.662 13.463C13.9706 13.1543 14.35 13 14.8 13H21.225V14H14.8C14.65 14 14.5126 14.0627 14.388 14.188C14.2626 14.3127 14.2 14.4583 14.2 14.625V28.375C14.2 28.5417 14.2626 28.6873 14.388 28.812C14.5126 28.9373 14.65 29 14.8 29H21.225V30H14.8ZM25.275 25.05L24.575 24.325L26.875 22H18.225V21H26.875L24.575 18.675L25.275 17.95L28.8 21.5L25.275 25.05Z" fill="#FF3B30"/>
</g>
</svg>
