<svg width="42" height="42" viewBox="0 0 42 42" fill="none" xmlns="http://www.w3.org/2000/svg">
<rect width="42" height="42" rx="21" fill="#EBF2FE"/>
<mask id="mask0_1778_34956" style="mask-type:alpha" maskUnits="userSpaceOnUse" x="9" y="9" width="24" height="24">
<rect x="9" y="9" width="24" height="24" fill="#D9D9D9"/>
</mask>
<g mask="url(#mask0_1778_34956)">
<path d="M20.5 25.5H21.5V20H20.5V25.5ZM21 18.575C21.1667 18.575 21.3127 18.5167 21.438 18.4C21.5627 18.2833 21.625 18.1333 21.625 17.95C21.625 17.7833 21.5627 17.6417 21.438 17.525C21.3127 17.4083 21.1667 17.35 21 17.35C20.8333 17.35 20.6873 17.4083 20.562 17.525C20.4373 17.6417 20.375 17.7833 20.375 17.95C20.375 18.1333 20.4373 18.2833 20.562 18.4C20.6873 18.5167 20.8333 18.575 21 18.575ZM21 30C19.75 30 18.5793 29.7627 17.488 29.288C16.396 28.8127 15.446 28.1707 14.638 27.362C13.8293 26.554 13.1873 25.604 12.712 24.512C12.2373 23.4207 12 22.25 12 21C12 19.75 12.2373 18.579 12.712 17.487C13.1873 16.3957 13.8293 15.4457 14.638 14.637C15.446 13.829 16.396 13.1873 17.488 12.712C18.5793 12.2373 19.75 12 21 12C22.25 12 23.421 12.2373 24.513 12.712C25.6043 13.1873 26.5543 13.829 27.363 14.637C28.171 15.4457 28.8127 16.3957 29.288 17.487C29.7627 18.579 30 19.75 30 21C30 22.25 29.7627 23.4207 29.288 24.512C28.8127 25.604 28.171 26.554 27.363 27.362C26.5543 28.1707 25.6043 28.8127 24.513 29.288C23.421 29.7627 22.25 30 21 30Z" fill="#0660FE"/>
</g>
</svg>
