<svg width="42" height="42" viewBox="0 0 42 42" fill="none" xmlns="http://www.w3.org/2000/svg">
<rect width="42" height="42" rx="21" fill="#EBF2FE"/>
<mask id="mask0_1778_34911" style="mask-type:alpha" maskUnits="userSpaceOnUse" x="9" y="9" width="24" height="24">
<rect x="9" y="9" width="24" height="24" fill="#D9D9D9"/>
</mask>
<g mask="url(#mask0_1778_34911)">
<path d="M12 19C12 17.6667 12.275 16.4083 12.825 15.225C13.375 14.0417 14.1417 13.0167 15.125 12.15L15.85 12.85C14.95 13.6333 14.25 14.554 13.75 15.612C13.25 16.6707 13 17.8 13 19H12ZM29 19C29 17.8 28.75 16.6707 28.25 15.612C27.75 14.554 27.05 13.6333 26.15 12.85L26.875 12.15C27.8583 13.0167 28.625 14.0417 29.175 15.225C29.725 16.4083 30 17.6667 30 19H29ZM13.5 27.725V26.725H15.5V19.225C15.5 17.9417 15.9167 16.7833 16.75 15.75C17.5833 14.7167 18.6667 14.075 20 13.825V13.125C20 12.825 20.096 12.5833 20.288 12.4C20.4793 12.2167 20.7167 12.125 21 12.125C21.2833 12.125 21.521 12.2167 21.713 12.4C21.9043 12.5833 22 12.825 22 13.125V13.825C23.3333 14.075 24.4167 14.7167 25.25 15.75C26.0833 16.7833 26.5 17.9417 26.5 19.225V26.725H28.5V27.725H13.5ZM21 30.625C20.5667 30.625 20.1877 30.471 19.863 30.163C19.5377 29.8543 19.375 29.4667 19.375 29H22.625C22.625 29.4667 22.471 29.8543 22.163 30.163C21.8543 30.471 21.4667 30.625 21 30.625Z" fill="#0660FE"/>
</g>
</svg>
