<svg width="42" height="42" viewBox="0 0 42 42" fill="none" xmlns="http://www.w3.org/2000/svg">
<rect width="42" height="42" rx="21" fill="#EBF2FE"/>
<mask id="mask0_1778_34929" style="mask-type:alpha" maskUnits="userSpaceOnUse" x="9" y="9" width="24" height="24">
<rect x="9" y="9" width="24" height="24" fill="#D9D9D9"/>
</mask>
<g mask="url(#mask0_1778_34929)">
<path d="M15.625 30C15.175 30 14.7917 29.8417 14.475 29.525C14.1583 29.2083 14 28.825 14 28.375V19.625C14 19.175 14.1583 18.7917 14.475 18.475C14.7917 18.1583 15.175 18 15.625 18H17V16C17 14.8833 17.3877 13.9373 18.163 13.162C18.9377 12.3873 19.8833 12 21 12C22.1167 12 23.0627 12.3873 23.838 13.162C24.6127 13.9373 25 14.8833 25 16V18H26.375C26.825 18 27.2083 18.1583 27.525 18.475C27.8417 18.7917 28 19.175 28 19.625V28.375C28 28.825 27.8417 29.2083 27.525 29.525C27.2083 29.8417 26.825 30 26.375 30H15.625ZM18 18H24V16C24 15.1667 23.7083 14.4583 23.125 13.875C22.5417 13.2917 21.8333 13 21 13C20.1667 13 19.4583 13.2917 18.875 13.875C18.2917 14.4583 18 15.1667 18 16V18ZM21 25.5C21.4167 25.5 21.7707 25.354 22.062 25.062C22.354 24.7707 22.5 24.4167 22.5 24C22.5 23.5833 22.354 23.2293 22.062 22.938C21.7707 22.646 21.4167 22.5 21 22.5C20.5833 22.5 20.2293 22.646 19.938 22.938C19.646 23.2293 19.5 23.5833 19.5 24C19.5 24.4167 19.646 24.7707 19.938 25.062C20.2293 25.354 20.5833 25.5 21 25.5Z" fill="#0660FE"/>
</g>
</svg>
