<svg width="42" height="42" viewBox="0 0 42 42" fill="none" xmlns="http://www.w3.org/2000/svg">
<rect width="42" height="42" rx="21" fill="#EBF2FE"/>
<mask id="mask0_1778_34947" style="mask-type:alpha" maskUnits="userSpaceOnUse" x="9" y="9" width="24" height="24">
<rect x="9" y="9" width="24" height="24" fill="#D9D9D9"/>
</mask>
<g mask="url(#mask0_1778_34947)">
<path d="M17.125 25.55C17.3417 25.55 17.521 25.475 17.663 25.325C17.8043 25.175 17.875 24.9917 17.875 24.775C17.875 24.5583 17.8043 24.375 17.663 24.225C17.521 24.075 17.3417 24 17.125 24C16.8917 24 16.704 24.075 16.562 24.225C16.4207 24.375 16.35 24.5583 16.35 24.775C16.35 24.9917 16.425 25.175 16.575 25.325C16.725 25.475 16.9083 25.55 17.125 25.55ZM17.125 21.775C17.3417 21.775 17.521 21.7 17.663 21.55C17.8043 21.4 17.875 21.2167 17.875 21C17.875 20.7833 17.8043 20.6 17.663 20.45C17.521 20.3 17.3417 20.225 17.125 20.225C16.8917 20.225 16.704 20.3 16.562 20.45C16.4207 20.6 16.35 20.7833 16.35 21C16.35 21.2167 16.425 21.4 16.575 21.55C16.725 21.7 16.9083 21.775 17.125 21.775ZM17.125 18C17.3417 18 17.521 17.925 17.663 17.775C17.8043 17.625 17.875 17.4417 17.875 17.225C17.875 17.0083 17.8043 16.825 17.663 16.675C17.521 16.525 17.3417 16.45 17.125 16.45C16.8917 16.45 16.704 16.525 16.562 16.675C16.4207 16.825 16.35 17.0083 16.35 17.225C16.35 17.4417 16.425 17.625 16.575 17.775C16.725 17.925 16.9083 18 17.125 18ZM20.2 25.275H25.575V24.275H20.2V25.275ZM20.2 21.5H25.575V20.5H20.2V21.5ZM20.2 17.725H25.575V16.725H20.2V17.725ZM14.625 29C14.1583 29 13.771 28.846 13.463 28.538C13.1543 28.2293 13 27.8417 13 27.375V14.625C13 14.1583 13.1543 13.771 13.463 13.463C13.771 13.1543 14.1583 13 14.625 13H27.375C27.8417 13 28.2293 13.1543 28.538 13.463C28.846 13.771 29 14.1583 29 14.625V27.375C29 27.8417 28.846 28.2293 28.538 28.538C28.2293 28.846 27.8417 29 27.375 29H14.625Z" fill="#0660FE"/>
</g>
</svg>
