<svg width="42" height="42" viewBox="0 0 42 42" fill="none" xmlns="http://www.w3.org/2000/svg">
<rect width="42" height="42" rx="21" fill="#EBF2FE"/>
<mask id="mask0_1778_34920" style="mask-type:alpha" maskUnits="userSpaceOnUse" x="9" y="9" width="24" height="24">
<rect x="9" y="9" width="24" height="24" fill="#D9D9D9"/>
</mask>
<g mask="url(#mask0_1778_34920)">
<path d="M13.5 30.375V29.375H28.5V30.375H13.5ZM13.5 12.625V11.625H28.5V12.625H13.5ZM21 23C21.7 23 22.2917 22.7583 22.775 22.275C23.2583 21.7917 23.5 21.2 23.5 20.5C23.5 19.8 23.2583 19.2083 22.775 18.725C22.2917 18.2417 21.7 18 21 18C20.3 18 19.7083 18.2417 19.225 18.725C18.7417 19.2083 18.5 19.8 18.5 20.5C18.5 21.2 18.7417 21.7917 19.225 22.275C19.7083 22.7583 20.3 23 21 23ZM13.625 28C13.1583 28 12.771 27.846 12.463 27.538C12.1543 27.2293 12 26.8417 12 26.375V15.625C12 15.1583 12.1543 14.771 12.463 14.463C12.771 14.1543 13.1583 14 13.625 14H28.375C28.8417 14 29.2293 14.1543 29.538 14.463C29.846 14.771 30 15.1583 30 15.625V26.375C30 26.8417 29.846 27.2293 29.538 27.538C29.2293 27.846 28.8417 28 28.375 28H13.625ZM16.05 27H25.95C25.2 26.3167 24.4127 25.8127 23.588 25.488C22.7627 25.1627 21.9 25 21 25C20.1 25 19.2377 25.1627 18.413 25.488C17.5877 25.8127 16.8 26.3167 16.05 27Z" fill="#0660FE"/>
</g>
</svg>
