<svg width="35" height="35" viewBox="0 0 35 35" fill="none" xmlns="http://www.w3.org/2000/svg">
<circle cx="17.5" cy="17.5" r="17.5" fill="#FFE7E5"/>
<mask id="mask0_710_15720" style="mask-type:alpha" maskUnits="userSpaceOnUse" x="5" y="5" width="24" height="25">
<rect x="5" y="5.5" width="24" height="24" fill="#D9D9D9"/>
</mask>
<g mask="url(#mask0_710_15720)">
<path d="M10.7 24.5V23.5H12.15L14.025 17.15C14.125 16.8 14.321 16.5207 14.613 16.312C14.9043 16.104 15.225 16 15.575 16H18.425C18.775 16 19.096 16.104 19.388 16.312C19.6793 16.5207 19.875 16.8 19.975 17.15L21.85 23.5H23.3V24.5H10.7ZM13.225 23.5H20.775L19 17.45C18.9667 17.3 18.896 17.1877 18.788 17.113C18.6793 17.0377 18.55 17 18.4 17H15.6C15.45 17 15.321 17.0377 15.213 17.113C15.1043 17.1877 15.0333 17.3 15 17.45L13.225 23.5ZM16.5 13.375V9.375H17.5V13.375H16.5ZM21.95 15.65L21.225 14.925L24.075 12.125L24.775 12.8L21.95 15.65ZM23.5 20.375V19.375H27.5V20.375H23.5ZM12.05 15.65L9.225 12.8L9.925 12.125L12.775 14.925L12.05 15.65ZM6.5 20.375V19.375H10.5V20.375H6.5Z" fill="#FF3B30"/>
</g>
</svg>
