<svg width="41" height="41" viewBox="0 0 41 41" fill="none" xmlns="http://www.w3.org/2000/svg">
    <circle cx="20.5" cy="20.5" r="20.5" fill="#FFECEB"/>
    <path d="M27.2298 27.7871H14.6002C14.2956 27.7871 14.043 28.0397 14.043 28.3443C14.043 28.6489 14.2956 28.9015 14.6002 28.9015H27.2298C27.5344 28.9015 27.787 28.6489 27.787 28.3443C27.787 28.0397 27.5344 27.7871 27.2298 27.7871Z" fill="#FF3B30"/>
    <path d="M15.7146 22.7871C16.0192 22.7871 16.2718 22.5345 16.2718 22.2299V15.9448L25.7217 25.3947C25.8331 25.5062 25.9743 25.5582 26.1154 25.5582C26.2566 25.5582 26.3977 25.5062 26.5092 25.3947C26.7246 25.1793 26.7246 24.8227 26.5092 24.6072L17.0593 15.1573H23.3444C23.6489 15.1573 23.9015 14.9048 23.9015 14.6002C23.9015 14.2956 23.6489 14.043 23.3444 14.043H15.7146C15.6403 14.043 15.5734 14.0578 15.4992 14.0875C15.3654 14.1395 15.254 14.251 15.202 14.3847C15.1723 14.459 15.1574 14.5259 15.1574 14.6002V22.2299C15.1574 22.5345 15.41 22.7871 15.7146 22.7871Z" fill="#FF3B30"/>
    </svg>
    