<svg width="41" height="41" viewBox="0 0 41 41" fill="none" xmlns="http://www.w3.org/2000/svg">
    <circle cx="20.5" cy="20.5" r="20.5" fill="#EAFBEE"/>
    <path d="M15.0853 25.0971C15.1596 25.1268 15.2265 25.1417 15.3007 25.1417H22.9288C23.2334 25.1417 23.4859 24.8891 23.4859 24.5846C23.4859 24.2801 23.2334 24.0276 22.9288 24.0276H16.6451L26.093 14.5797C26.3084 14.3643 26.3084 14.0078 26.093 13.7924C25.8776 13.577 25.521 13.577 25.3056 13.7924L15.8578 23.2402V16.9565C15.8578 16.652 15.6053 16.3995 15.3007 16.3995C14.9962 16.3995 14.7437 16.652 14.7437 16.9565V24.5846C14.7437 24.6589 14.7585 24.7257 14.7882 24.8C14.8402 24.9337 14.9517 25.0451 15.0853 25.0971Z" fill="#34C759"/>
    <path d="M26.8134 27.3691H14.1866C13.8821 27.3691 13.6295 27.6217 13.6295 27.9262C13.6295 28.2307 13.8821 28.4833 14.1866 28.4833H26.8134C27.118 28.4833 27.3705 28.2307 27.3705 27.9262C27.3705 27.6217 27.118 27.3691 26.8134 27.3691Z" fill="#34C759"/>
    </svg>
    