<svg width="25" height="24" viewBox="0 0 25 24" fill="none" xmlns="http://www.w3.org/2000/svg">
    <g clip-path="url(#clip0_2313_5037)">
    <path d="M9.83 11.5H12C13.1935 11.5 14.3381 11.9741 15.182 12.818C16.0259 13.6619 16.5 14.8065 16.5 16H9.499L9.5 17H17.5V16C17.4969 14.936 17.1894 13.895 16.614 13H19.5C20.4453 12.9997 21.3712 13.2674 22.1705 13.772C22.9698 14.2767 23.6097 14.9975 24.016 15.851C21.651 18.972 17.822 21 13.5 21C10.739 21 8.4 20.41 6.5 19.375V10.071C7.71661 10.2453 8.86548 10.7383 9.83 11.5ZM5.5 19C5.5 19.2652 5.39464 19.5196 5.20711 19.7071C5.01957 19.8946 4.76522 20 4.5 20H2.5C2.23478 20 1.98043 19.8946 1.79289 19.7071C1.60536 19.5196 1.5 19.2652 1.5 19V10C1.5 9.73478 1.60536 9.48043 1.79289 9.29289C1.98043 9.10536 2.23478 9 2.5 9H4.5C4.76522 9 5.01957 9.10536 5.20711 9.29289C5.39464 9.48043 5.5 9.73478 5.5 10V19ZM18.5 5C19.2957 5 20.0587 5.31607 20.6213 5.87868C21.1839 6.44129 21.5 7.20435 21.5 8C21.5 8.79565 21.1839 9.55871 20.6213 10.1213C20.0587 10.6839 19.2957 11 18.5 11C17.7044 11 16.9413 10.6839 16.3787 10.1213C15.8161 9.55871 15.5 8.79565 15.5 8C15.5 7.20435 15.8161 6.44129 16.3787 5.87868C16.9413 5.31607 17.7044 5 18.5 5ZM11.5 2C12.2957 2 13.0587 2.31607 13.6213 2.87868C14.1839 3.44129 14.5 4.20435 14.5 5C14.5 5.79565 14.1839 6.55871 13.6213 7.12132C13.0587 7.68393 12.2957 8 11.5 8C10.7044 8 9.94129 7.68393 9.37868 7.12132C8.81607 6.55871 8.5 5.79565 8.5 5C8.5 4.20435 8.81607 3.44129 9.37868 2.87868C9.94129 2.31607 10.7044 2 11.5 2Z" fill="#B4BBCB"/>
    </g>
    <defs>
    <clipPath id="clip0_2313_5037">
    <rect width="24" height="24" fill="white" transform="translate(0.5)"/>
    </clipPath>
    </defs>
    </svg>
    