<svg width="25" height="24" viewBox="0 0 25 24" fill="none" xmlns="http://www.w3.org/2000/svg">
    <g clip-path="url(#clip0_2313_5047)">
    <path d="M20.5 22H4.5V20C4.5 18.6739 5.02678 17.4021 5.96447 16.4645C6.90215 15.5268 8.17392 15 9.5 15H15.5C16.8261 15 18.0978 15.5268 19.0355 16.4645C19.9732 17.4021 20.5 18.6739 20.5 20V22ZM12.5 13C11.7121 13 10.9319 12.8448 10.2039 12.5433C9.47594 12.2417 8.81451 11.7998 8.25736 11.2426C7.70021 10.6855 7.25825 10.0241 6.95672 9.2961C6.65519 8.56815 6.5 7.78793 6.5 7C6.5 6.21207 6.65519 5.43185 6.95672 4.7039C7.25825 3.97595 7.70021 3.31451 8.25736 2.75736C8.81451 2.20021 9.47594 1.75825 10.2039 1.45672C10.9319 1.15519 11.7121 1 12.5 1C14.0913 1 15.6174 1.63214 16.7426 2.75736C17.8679 3.88258 18.5 5.4087 18.5 7C18.5 8.5913 17.8679 10.1174 16.7426 11.2426C15.6174 12.3679 14.0913 13 12.5 13Z" fill="#B4BBCB"/>
    </g>
    <defs>
    <clipPath id="clip0_2313_5047">
    <rect width="24" height="24" fill="white" transform="translate(0.5)"/>
    </clipPath>
    </defs>
    </svg>
    